<?xml version="1.0" encoding="UTF-8" standalone="no"?>
<!DOCTYPE svg PUBLIC "-//W3C//DTD SVG 1.1//EN"
 "http://www.w3.org/Graphics/SVG/1.1/DTD/svg11.dtd">
<!-- Generated by graphviz version 2.38.0 (20140413.2041)
 -->
<!-- Title: G Pages: 1 -->
<svg width="984pt" height="920pt"
 viewBox="0.00 0.00 983.94 920.17" xmlns="http://www.w3.org/2000/svg" xmlns:xlink="http://www.w3.org/1999/xlink">
<g id="graph0" class="graph" transform="scale(1 1) rotate(0) translate(4 916.166)">
<title>G</title>
<polygon fill="white" stroke="none" points="-4,4 -4,-916.166 979.938,-916.166 979.938,4 -4,4"/>
<text text-anchor="middle" x="487.969" y="-896.966" font-family="Times,serif" font-size="14.00">Forward Graph</text>
<!-- n1 -->
<g id="node1" class="node"><title>n1</title>
<g id="a_node1"><a xlink:title="[nngraph_handin.lua]:8">
<ellipse fill="none" stroke="black" cx="359.969" cy="-169.643" rx="135.115" ry="58.8803"/>
<text text-anchor="middle" x="359.969" y="-195.943" font-family="Times,serif" font-size="14.00">Node1</text>
<text text-anchor="start" x="272.469" y="-180.943" font-family="Times,serif" font-size="14.00">input = {Tensor[3],Tensor[3]}</text>
<text text-anchor="start" x="272.469" y="-165.943" font-family="Times,serif" font-size="14.00">mapindex = {Node3,Node4}</text>
<text text-anchor="start" x="272.469" y="-150.943" font-family="Times,serif" font-size="14.00">gradOutput = {Tensor[3]}</text>
<text text-anchor="middle" x="359.969" y="-135.943" font-family="Times,serif" font-size="14.00">module = nn.CAddTable</text>
</a>
</g>
</g>
<!-- n2 -->
<g id="node2" class="node"><title>n2</title>
<g id="a_node2"><a xlink:title="[[C]]:&#45;1">
<ellipse fill="none" stroke="black" cx="359.969" cy="-37.4767" rx="118.174" ry="37.4533"/>
<text text-anchor="middle" x="359.969" y="-48.7767" font-family="Times,serif" font-size="14.00">Node2</text>
<text text-anchor="start" x="284.469" y="-33.7767" font-family="Times,serif" font-size="14.00">input = {Tensor[3]}</text>
<text text-anchor="middle" x="359.969" y="-18.7767" font-family="Times,serif" font-size="14.00">gradOutput = {Tensor[3]}</text>
</a>
</g>
</g>
<!-- n1&#45;&gt;n2 -->
<g id="edge1" class="edge"><title>n1&#45;&gt;n2</title>
<path fill="none" stroke="black" d="M359.969,-110.792C359.969,-102.294 359.969,-93.6297 359.969,-85.3879"/>
<polygon fill="black" stroke="black" points="363.469,-85.2186 359.969,-75.2186 356.469,-85.2186 363.469,-85.2186"/>
</g>
<!-- n3 -->
<g id="node3" class="node"><title>n3</title>
<g id="a_node3"><a xlink:title="[nngraph_handin.lua]:4">
<ellipse fill="none" stroke="black" cx="211.969" cy="-323.023" rx="118.174" ry="48.1667"/>
<text text-anchor="middle" x="211.969" y="-341.823" font-family="Times,serif" font-size="14.00">Node3</text>
<text text-anchor="start" x="136.469" y="-326.823" font-family="Times,serif" font-size="14.00">input = {Tensor[3]}</text>
<text text-anchor="start" x="136.469" y="-311.823" font-family="Times,serif" font-size="14.00">gradOutput = {Tensor[3]}</text>
<text text-anchor="middle" x="211.969" y="-296.823" font-family="Times,serif" font-size="14.00">module = nn.Identity</text>
</a>
</g>
</g>
<!-- n3&#45;&gt;n1 -->
<g id="edge2" class="edge"><title>n3&#45;&gt;n1</title>
<path fill="none" stroke="black" d="M255.175,-277.831C269.326,-263.356 285.306,-247.011 300.445,-231.527"/>
<polygon fill="black" stroke="black" points="303.309,-233.604 307.797,-224.007 298.304,-228.71 303.309,-233.604"/>
</g>
<!-- n4 -->
<g id="node4" class="node"><title>n4</title>
<g id="a_node4"><a xlink:title="[nngraph_handin.lua]:7">
<ellipse fill="none" stroke="black" cx="507.969" cy="-323.023" rx="135.115" ry="58.8803"/>
<text text-anchor="middle" x="507.969" y="-349.323" font-family="Times,serif" font-size="14.00">Node4</text>
<text text-anchor="start" x="420.469" y="-334.323" font-family="Times,serif" font-size="14.00">input = {Tensor[3],Tensor[3]}</text>
<text text-anchor="start" x="420.469" y="-319.323" font-family="Times,serif" font-size="14.00">mapindex = {Node6,Node7}</text>
<text text-anchor="start" x="420.469" y="-304.323" font-family="Times,serif" font-size="14.00">gradOutput = {Tensor[3]}</text>
<text text-anchor="middle" x="507.969" y="-289.323" font-family="Times,serif" font-size="14.00">module = nn.CMulTable</text>
</a>
</g>
</g>
<!-- n4&#45;&gt;n1 -->
<g id="edge3" class="edge"><title>n4&#45;&gt;n1</title>
<path fill="none" stroke="black" d="M455.79,-268.652C443.963,-256.555 431.32,-243.623 419.224,-231.251"/>
<polygon fill="black" stroke="black" points="421.669,-228.746 412.176,-224.042 416.664,-233.64 421.669,-228.746"/>
</g>
<!-- n5 -->
<g id="node5" class="node"><title>n5</title>
<g id="a_node5"><a xlink:title="[[C]]:&#45;1&#45;1">
<ellipse fill="none" stroke="black" cx="185.969" cy="-465.796" rx="185.938" ry="48.1667"/>
<text text-anchor="middle" x="185.969" y="-484.596" font-family="Times,serif" font-size="14.00">Node5</text>
<text text-anchor="start" x="62.4691" y="-469.596" font-family="Times,serif" font-size="14.00">input = {{Tensor[3],Tensor[3],Tensor[3]}}</text>
<text text-anchor="start" x="62.4691" y="-454.596" font-family="Times,serif" font-size="14.00">selectindex = 1</text>
<text text-anchor="middle" x="185.969" y="-439.596" font-family="Times,serif" font-size="14.00">gradOutput = {Tensor[3]}</text>
</a>
</g>
</g>
<!-- n5&#45;&gt;n3 -->
<g id="edge4" class="edge"><title>n5&#45;&gt;n3</title>
<path fill="none" stroke="black" d="M194.699,-417.529C196.843,-405.922 199.161,-393.372 201.381,-381.348"/>
<polygon fill="black" stroke="black" points="204.843,-381.874 203.218,-371.405 197.96,-380.603 204.843,-381.874"/>
</g>
<!-- n6 -->
<g id="node6" class="node"><title>n6</title>
<g id="a_node6"><a xlink:title="[nngraph_handin.lua]:5">
<ellipse fill="none" stroke="black" cx="507.969" cy="-465.796" rx="118.174" ry="48.1667"/>
<text text-anchor="middle" x="507.969" y="-484.596" font-family="Times,serif" font-size="14.00">Node6</text>
<text text-anchor="start" x="432.469" y="-469.596" font-family="Times,serif" font-size="14.00">input = {Tensor[3]}</text>
<text text-anchor="start" x="432.469" y="-454.596" font-family="Times,serif" font-size="14.00">gradOutput = {Tensor[3]}</text>
<text text-anchor="middle" x="507.969" y="-439.596" font-family="Times,serif" font-size="14.00">module = nn.Identity</text>
</a>
</g>
</g>
<!-- n6&#45;&gt;n4 -->
<g id="edge5" class="edge"><title>n6&#45;&gt;n4</title>
<path fill="none" stroke="black" d="M507.969,-417.529C507.969,-409.377 507.969,-400.759 507.969,-392.185"/>
<polygon fill="black" stroke="black" points="511.469,-392.171 507.969,-382.171 504.469,-392.171 511.469,-392.171"/>
</g>
<!-- n7 -->
<g id="node7" class="node"><title>n7</title>
<g id="a_node7"><a xlink:title="[nngraph_handin.lua]:6">
<ellipse fill="none" stroke="black" cx="778.969" cy="-465.796" rx="124.402" ry="48.1667"/>
<text text-anchor="middle" x="778.969" y="-484.596" font-family="Times,serif" font-size="14.00">Node7</text>
<text text-anchor="start" x="698.969" y="-469.596" font-family="Times,serif" font-size="14.00">input = {Tensor[3]}</text>
<text text-anchor="start" x="698.969" y="-454.596" font-family="Times,serif" font-size="14.00">gradOutput = {Tensor[3]}</text>
<text text-anchor="middle" x="778.969" y="-439.596" font-family="Times,serif" font-size="14.00">module = nn.Linear(3 &#45;&gt; 3)</text>
</a>
</g>
</g>
<!-- n7&#45;&gt;n4 -->
<g id="edge6" class="edge"><title>n7&#45;&gt;n4</title>
<path fill="none" stroke="black" d="M705.633,-426.701C673.976,-410.256 636.539,-390.81 602.808,-373.288"/>
<polygon fill="black" stroke="black" points="604.348,-370.144 593.861,-368.64 601.121,-376.356 604.348,-370.144"/>
</g>
<!-- n8 -->
<g id="node8" class="node"><title>n8</title>
<g id="a_node8"><a xlink:title="[[C]]:&#45;1&#45;mnode">
<ellipse fill="none" stroke="black" cx="399.969" cy="-730.129" rx="211.35" ry="48.1667"/>
<text text-anchor="middle" x="399.969" y="-748.929" font-family="Times,serif" font-size="14.00">Node8</text>
<text text-anchor="start" x="258.469" y="-733.929" font-family="Times,serif" font-size="14.00">input = {{Tensor[3],Tensor[3],Tensor[3]}}</text>
<text text-anchor="start" x="258.469" y="-718.929" font-family="Times,serif" font-size="14.00">gradOutput = {{Tensor[3],Tensor[3],Tensor[3]}}</text>
<text text-anchor="middle" x="399.969" y="-703.929" font-family="Times,serif" font-size="14.00">nSplitOutputs = 3</text>
</a>
</g>
</g>
<!-- n8&#45;&gt;n5 -->
<g id="edge7" class="edge"><title>n8&#45;&gt;n5</title>
<path fill="none" stroke="black" d="M263.505,-693.324C240.887,-681.682 219.958,-666.312 204.969,-646.046 179.455,-611.549 175.821,-562.586 177.948,-524.548"/>
<polygon fill="black" stroke="black" points="181.47,-524.353 178.687,-514.13 174.488,-523.858 181.47,-524.353"/>
</g>
<!-- n9 -->
<g id="node9" class="node"><title>n9</title>
<g id="a_node9"><a xlink:title="[[C]]:&#45;1&#45;2">
<ellipse fill="none" stroke="black" cx="399.969" cy="-597.963" rx="185.938" ry="48.1667"/>
<text text-anchor="middle" x="399.969" y="-616.763" font-family="Times,serif" font-size="14.00">Node9</text>
<text text-anchor="start" x="276.469" y="-601.763" font-family="Times,serif" font-size="14.00">input = {{Tensor[3],Tensor[3],Tensor[3]}}</text>
<text text-anchor="start" x="276.469" y="-586.763" font-family="Times,serif" font-size="14.00">selectindex = 2</text>
<text text-anchor="middle" x="399.969" y="-571.763" font-family="Times,serif" font-size="14.00">gradOutput = {Tensor[3]}</text>
</a>
</g>
</g>
<!-- n8&#45;&gt;n9 -->
<g id="edge11" class="edge"><title>n8&#45;&gt;n9</title>
<path fill="none" stroke="black" d="M399.969,-681.768C399.969,-673.499 399.969,-664.817 399.969,-656.314"/>
<polygon fill="black" stroke="black" points="403.469,-656.071 399.969,-646.071 396.469,-656.071 403.469,-656.071"/>
</g>
<!-- n10 -->
<g id="node10" class="node"><title>n10</title>
<g id="a_node10"><a xlink:title="[[C]]:&#45;1&#45;3">
<ellipse fill="none" stroke="black" cx="789.969" cy="-597.963" rx="185.938" ry="48.1667"/>
<text text-anchor="middle" x="789.969" y="-616.763" font-family="Times,serif" font-size="14.00">Node10</text>
<text text-anchor="start" x="666.469" y="-601.763" font-family="Times,serif" font-size="14.00">input = {{Tensor[3],Tensor[3],Tensor[3]}}</text>
<text text-anchor="start" x="666.469" y="-586.763" font-family="Times,serif" font-size="14.00">selectindex = 3</text>
<text text-anchor="middle" x="789.969" y="-571.763" font-family="Times,serif" font-size="14.00">gradOutput = {Tensor[3]}</text>
</a>
</g>
</g>
<!-- n8&#45;&gt;n10 -->
<g id="edge12" class="edge"><title>n8&#45;&gt;n10</title>
<path fill="none" stroke="black" d="M516.982,-690.075C564.73,-674.138 619.948,-655.709 668.177,-639.612"/>
<polygon fill="black" stroke="black" points="669.347,-642.911 677.725,-636.425 667.131,-636.271 669.347,-642.911"/>
</g>
<!-- n9&#45;&gt;n6 -->
<g id="edge8" class="edge"><title>n9&#45;&gt;n6</title>
<path fill="none" stroke="black" d="M438.35,-550.704C446.757,-540.572 455.716,-529.774 464.312,-519.414"/>
<polygon fill="black" stroke="black" points="467.107,-521.526 470.799,-511.595 461.72,-517.056 467.107,-521.526"/>
</g>
<!-- n10&#45;&gt;n7 -->
<g id="edge9" class="edge"><title>n10&#45;&gt;n7</title>
<path fill="none" stroke="black" d="M785.967,-549.601C785.268,-541.333 784.534,-532.651 783.816,-524.148"/>
<polygon fill="black" stroke="black" points="787.28,-523.574 782.95,-513.904 780.305,-524.163 787.28,-523.574"/>
</g>
<!-- n11 -->
<g id="node11" class="node"><title>n11</title>
<g id="a_node11"><a xlink:title="[[C]]:&#45;1">
<ellipse fill="none" stroke="black" cx="399.969" cy="-851.689" rx="211.35" ry="37.4533"/>
<text text-anchor="middle" x="399.969" y="-862.989" font-family="Times,serif" font-size="14.00">Node11</text>
<text text-anchor="start" x="258.469" y="-847.989" font-family="Times,serif" font-size="14.00">input = {Tensor[3],Tensor[3],Tensor[3]}</text>
<text text-anchor="middle" x="399.969" y="-832.989" font-family="Times,serif" font-size="14.00">gradOutput = {{Tensor[3],Tensor[3],Tensor[3]}}</text>
</a>
</g>
</g>
<!-- n11&#45;&gt;n8 -->
<g id="edge10" class="edge"><title>n11&#45;&gt;n8</title>
<path fill="none" stroke="black" d="M399.969,-814.167C399.969,-806.073 399.969,-797.304 399.969,-788.6"/>
<polygon fill="black" stroke="black" points="403.469,-788.457 399.969,-778.457 396.469,-788.457 403.469,-788.457"/>
</g>
</g>
</svg>
